<svg xmlns="http://www.w3.org/2000/svg" xmlns:xlink="http://www.w3.org/1999/xlink" xmlns:lucid="lucid" width="1303" height="1200"><g transform="translate(-67 -20)" lucid:page-tab-id="0_0"><path d="M670 406c0-3.3 2.7-6 6-6h648c3.3 0 6 2.7 6 6v528c0 3.3-2.7 6-6 6H676c-3.3 0-6-2.7-6-6z" fill="#f2f3f5"/><path d="M706.86 400h30.85m15.44 0H784m15.43 0h30.86m15.4 0h30.87m15.43 0h30.86m15.43 0h30.84m15.43 0h30.86m15.43 0h30.85m15.44 0H1108m15.43 0h30.86m15.4 0h30.87m15.43 0h30.86m15.43 0h30.84m15.43 0H1324l3.03.82 2.15 2.15.82 3.03v14.67m0 14.66v29.34m0 14.66v29.34m0 14.66v29.34m0 14.66v29.34m0 14.66v29.34m0 14.66v29.34m0 14.66v29.34m0 14.66v29.34m0 14.66v29.34m0 14.66v29.34m0 14.66v29.34m0 14.66V934l-.82 3.03-2.15 2.15-3.03.82h-15.43m-15.43 0h-30.85m-15.44 0H1216m-15.43 0h-30.86m-15.4 0h-30.87m-15.43 0h-30.86m-15.43 0h-30.84m-15.43 0h-30.86m-15.43 0H938.3m-15.44 0H892m-15.43 0H845.7m-15.4 0h-30.87M784 940h-30.86m-15.43 0h-30.84m-15.43 0H676l-3.03-.82-2.15-2.15L670 934v-14.67m0-14.66v-29.34m0-14.66v-29.34m0-14.66v-29.34m0-14.66v-29.34m0-14.66v-29.34m0-14.66v-29.34m0-14.66v-29.34m0-14.66v-29.34m0-14.66v-29.34m0-14.66v-29.34m0-14.66v-29.34m0-14.66V406l.82-3.03 2.15-2.15L676 400h15.43" stroke="#5e5e5e" stroke-width="3" fill="none"/><path d="M839.18 65.3c1.56-2.93 5.5-5.3 8.82-5.3h84c3.3 0 7.26 2.37 8.82 5.3l26.36 49.4c1.56 2.93 1.56 7.67 0 10.6l-26.36 49.4c-1.56 2.93-5.5 5.3-8.82 5.3h-84c-3.3 0-7.26-2.37-8.82-5.3l-26.36-49.4c-1.56-2.93-1.56-7.67 0-10.6z" stroke="#5e5e5e" stroke-width="3" fill="#fff"/><use xlink:href="#a" transform="matrix(1,0,0,1,815,65) translate(18.86302469135802 45.27777777777778)"/><use xlink:href="#b" transform="matrix(1,0,0,1,815,65) translate(32.44327160493826 71.94444444444446)"/><path d="M885.2 261.1c2.65-2 6.95-2 9.6 0l70.4 52.8c2.65 2 2.65 5.2 0 7.2l-70.4 52.8c-2.65 2-6.95 2-9.6 0l-70.4-52.8c-2.65-2-2.65-5.2 0-7.2z" stroke="#5e5e5e" stroke-width="3" fill="#fff"/><use xlink:href="#c" transform="matrix(1,0,0,1,815,262.5) translate(36.2087037037037 41.78777777777778)"/><use xlink:href="#d" transform="matrix(1,0,0,1,815,262.5) translate(28.98648148148148 68.45444444444445)"/><use xlink:href="#e" transform="matrix(1,0,0,1,815,262.5) translate(68.83216049382716 95.1211111111111)"/><path d="M890 182.5v57.17" stroke="#5e5e5e" stroke-width="2" fill="none"/><path d="M891 182.53h-2v-1.03h2z" stroke="#5e5e5e" stroke-width=".05" fill="#5e5e5e"/><path d="M890 254.93l-4.64-14.26h9.28z" stroke="#5e5e5e" stroke-width="2" fill="#5e5e5e"/><path d="M390 273.5c0-3.3 2.7-6 6-6h268c3.3 0 6 2.7 6 6v88c0 3.3-2.7 6-6 6H396c-3.3 0-6-2.7-6-6z" stroke="#5e5e5e" stroke-width="3" fill="#fff"/><use xlink:href="#f" transform="matrix(1,0,0,1,402,279.5) translate(12.506172839506178 41.52777777777778)"/><use xlink:href="#g" transform="matrix(1,0,0,1,402,279.5) translate(31.024691358024697 41.52777777777778)"/><use xlink:href="#h" transform="matrix(1,0,0,1,402,279.5) translate(66.64197530864197 41.52777777777778)"/><use xlink:href="#i" transform="matrix(1,0,0,1,402,279.5) translate(85.77777777777779 41.52777777777778)"/><path d="M726.65 318.5H690v-2h36.65zm83.74 0h-54.17v-2h54.16z" stroke="#5e5e5e" stroke-width=".05" fill="#5e5e5e"/><path d="M811.28 316.9l.28 1.6h-1.2v-2h1.1z" fill="#5e5e5e"/><path d="M811.3 316.9l.3 1.63h-1.26v-2.05h1.14zm-.9-.38v1.96h1.13l-.27-1.6.15-.36z" stroke="#5e5e5e" stroke-width=".05" fill="#5e5e5e"/><path d="M689 322.14l-14.26-4.64 14.26-4.64z" fill="#5e5e5e"/><path d="M690 323.5l-18.5-6 18.5-6zm-12.03-6l10.03 3.26v-6.52z" stroke="#5e5e5e" stroke-width=".05" fill="#5e5e5e"/><use xlink:href="#j" transform="matrix(1,0,0,1,726.6543140234162,306.8333333333333) translate(0.005000000000000782 14.222222222222223)"/><path d="M220 293.5c0-3.3 2.7-6 6-6h88c3.3 0 6 2.7 6 6v48c0 3.3-2.7 6-6 6h-88c-3.3 0-6-2.7-6-6z" stroke="#5e5e5e" stroke-width="3" fill="#fff"/><use xlink:href="#k" transform="matrix(1,0,0,1,232,299.5) translate(5.006172839506171 22.27777777777778)"/><use xlink:href="#h" transform="matrix(1,0,0,1,232,299.5) translate(39.51234567901234 22.27777777777778)"/><use xlink:href="#l" transform="matrix(1,0,0,1,232,299.5) translate(58.648148148148145 22.27777777777778)"/><path d="M387.5 317.5H340" stroke="#5e5e5e" stroke-width="2" fill="none"/><path d="M388.5 318.5h-1.03v-2h1.03z" stroke="#5e5e5e" stroke-width=".05" fill="#5e5e5e"/><path d="M324.74 317.5l14.26-4.64v9.28z" stroke="#5e5e5e" stroke-width="2" fill="#5e5e5e"/><path d="M265.2 413.6c2.65-2 6.95-2 9.6 0l70.4 52.8c2.65 2 2.65 5.2 0 7.2l-70.4 52.8c-2.65 2-6.95 2-9.6 0l-70.4-52.8c-2.65-2-2.65-5.2 0-7.2z" stroke="#5e5e5e" stroke-width="3" fill="#fff"/><use xlink:href="#c" transform="matrix(1,0,0,1,195,415) translate(36.2087037037037 45.27777777777778)"/><use xlink:href="#m" transform="matrix(1,0,0,1,195,415) translate(33.739567901234565 71.94444444444446)"/><path d="M270 350v42.17" stroke="#5e5e5e" stroke-width="2" fill="none"/><path d="M271 350.03h-2V349h2z" stroke="#5e5e5e" stroke-width=".05" fill="#5e5e5e"/><path d="M270 407.43l-4.64-14.26h9.28z" stroke="#5e5e5e" stroke-width="2" fill="#5e5e5e"/><path d="M271 695h-2v-62.92h2zm0-84.25h-2v-80.42h2z" stroke="#5e5e5e" stroke-width=".05" fill="#5e5e5e"/><path d="M271 529.35v1h-2v-1.04z" fill="#5e5e5e"/><path d="M271.02 529.33v1.05h-2.04v-1.1zm-2 1h1.96v-.95l-1.96-.05z" stroke="#5e5e5e" stroke-width=".05" fill="#5e5e5e"/><path d="M270 710.26L265.36 696h9.28z" fill="#5e5e5e"/><path d="M270 713.5l-6-18.5h12zm-3.26-16.5l3.26 10.03 3.26-10.03z" stroke="#5e5e5e" stroke-width=".05" fill="#5e5e5e"/><use xlink:href="#j" transform="matrix(1,0,0,1,255.20987654320987,610.7480493152058) translate(0.005000000000000782 14.222222222222223)"/><path d="M552.8 471H349.6v-2h203.2zm220.1 0H587.2v-2h185.7z" stroke="#5e5e5e" stroke-width=".05" fill="#5e5e5e"/><path d="M349.64 471h-1.1l.18-.4-.28-1.6h1.2z" fill="#5e5e5e"/><path d="M349.66 471.02h-1.14l.17-.42-.3-1.63h1.26zm-1.2-2l.28 1.6-.15.36h1v-1.96z" stroke="#5e5e5e" stroke-width=".05" fill="#5e5e5e"/><path d="M788.15 470l-14.26 4.64v-9.28z" fill="#5e5e5e"/><path d="M791.4 470l-18.5 6v-12zm-16.5 3.26L784.9 470l-10.03-3.26z" stroke="#5e5e5e" stroke-width=".05" fill="#5e5e5e"/><use xlink:href="#n" transform="matrix(1,0,0,1,552.7901234567901,459.3333333333333) translate(0.004999999999999005 14.222222222222223)"/><path d="M870 530.33V544c0 3.3-2.7 6-6 6H526c-3.3 0-6 2.7-6 6v44" stroke="#5e5e5e" stroke-width="2" fill="none"/><path d="M871 529.35v1h-2v-1.04z" stroke="#5e5e5e" stroke-width=".05" fill="#5e5e5e"/><path d="M520 615.26L515.36 601h9.28z" stroke="#5e5e5e" stroke-width="2" fill="#5e5e5e"/><use xlink:href="#n" transform="matrix(1,0,0,1,543.2573150578401,524.6666666666667) translate(0.004999999999999005 14.222222222222223)"/><path d="M390 626c0-3.3 2.7-6 6-6h248c3.3 0 6 2.7 6 6v65.33c0 3.32-2.7 6-6 6H396c-3.3 0-6-2.68-6-6z" stroke="#5e5e5e" stroke-width="3" fill="#fff"/><use xlink:href="#k" transform="matrix(1,0,0,1,402,632) translate(9.512345679012356 31.27777777777778)"/><use xlink:href="#o" transform="matrix(1,0,0,1,402,632) translate(44.018518518518526 31.27777777777778)"/><use xlink:href="#h" transform="matrix(1,0,0,1,402,632) translate(74.88271604938272 31.27777777777778)"/><use xlink:href="#p" transform="matrix(1,0,0,1,402,632) translate(94.01851851851852 31.27777777777778)"/><use xlink:href="#o" transform="matrix(1,0,0,1,402,632) translate(128.52469135802468 31.27777777777778)"/><use xlink:href="#q" transform="matrix(1,0,0,1,402,632) translate(159.38888888888889 31.27777777777778)"/><use xlink:href="#r" transform="matrix(1,0,0,1,402,632) translate(178.52469135802468 31.27777777777778)"/><use xlink:href="#s" transform="matrix(1,0,0,1,402,632) translate(197.0432098765432 31.27777777777778)"/><path d="M160 721c0-3.3 2.7-6 6-6h208c3.3 0 6 2.7 6 6v118.67c0 3.3-2.7 6-6 6H166c-3.3 0-6-2.7-6-6z" stroke="#5e5e5e" stroke-width="3" fill="#fff"/><use xlink:href="#t" transform="matrix(1,0,0,1,172,726.9999999999999) translate(8.339506172839506 44.52777777777778)"/><use xlink:href="#h" transform="matrix(1,0,0,1,172,726.9999999999999) translate(87.22839506172839 44.52777777777778)"/><use xlink:href="#u" transform="matrix(1,0,0,1,172,726.9999999999999) translate(106.36419753086419 44.52777777777778)"/><use xlink:href="#v" transform="matrix(1,0,0,1,172,726.9999999999999) translate(14.203703703703695 71.19444444444446)"/><use xlink:href="#w" transform="matrix(1,0,0,1,172,726.9999999999999) translate(93.09259259259258 71.19444444444446)"/><path d="M520 699.83v74.5c0 3.32-2.7 6-6 6H400" stroke="#5e5e5e" stroke-width="2" fill="none"/><path d="M521 699.86h-2v-1.03h2z" stroke="#5e5e5e" stroke-width=".05" fill="#5e5e5e"/><path d="M384.74 780.33L399 775.7v9.27z" stroke="#5e5e5e" stroke-width="2" fill="#5e5e5e"/><path d="M264.73 882.87c2.9-1.58 7.63-1.58 10.54 0l99.46 54.26c2.9 1.58 2.9 4.16 0 5.74l-99.46 54.26c-2.9 1.58-7.63 1.58-10.54 0l-99.46-54.26c-2.9-1.58-2.9-4.16 0-5.74z" stroke="#5e5e5e" stroke-width="3" fill="#fff"/><use xlink:href="#k" transform="matrix(1,0,0,1,165,885) translate(31.609938271604943 59.02777777777778)"/><use xlink:href="#o" transform="matrix(1,0,0,1,165,885) translate(66.11611111111111 59.02777777777778)"/><use xlink:href="#x" transform="matrix(1,0,0,1,165,885) translate(96.98030864197531 59.02777777777778)"/><use xlink:href="#y" transform="matrix(1,0,0,1,165,885) translate(129.07907407407407 59.02777777777778)"/><path d="M270 848.17v13.54" stroke="#5e5e5e" stroke-width="2" fill="none"/><path d="M271 848.2h-2v-1.03h2z" stroke="#5e5e5e" stroke-width=".05" fill="#5e5e5e"/><path d="M270 876.98l-4.64-14.27h9.28z" stroke="#5e5e5e" stroke-width="2" fill="#5e5e5e"/><path d="M190 1066c0-3.3 2.7-6 6-6h148c3.3 0 6 2.7 6 6v108c0 3.3-2.7 6-6 6H196c-3.3 0-6-2.7-6-6z" stroke="#5e5e5e" stroke-width="3" fill="#fff"/><path d="M206 1060v120m128-120v120" stroke="#5e5e5e" stroke-width="3" fill="none"/><use xlink:href="#z" transform="matrix(1,0,0,1,215,1065) translate(21.111111111111114 46.111111111111114)"/><use xlink:href="#A" transform="matrix(1,0,0,1,215,1065) translate(71.66666666666666 46.111111111111114)"/><use xlink:href="#B" transform="matrix(1,0,0,1,215,1065) translate(18.02469135802469 72.77777777777777)"/><path d="M271 1040h-2v-.2h2zm0-21.52h-2v-17.7h2z" stroke="#5e5e5e" stroke-width=".05" fill="#5e5e5e"/><path d="M271 1000.8h-2v-1.07l.63.1 1.37-.15z" fill="#5e5e5e"/><path d="M271.02 1000.84h-2.04v-1.14l.65.1 1.4-.14zm-1.4-1l-.6-.08v1.03h1.96v-1.1z" stroke="#5e5e5e" stroke-width=".05" fill="#5e5e5e"/><path d="M270 1055.26l-4.64-14.26h9.28z" fill="#5e5e5e"/><path d="M270 1058.5l-6-18.5h12zm-3.26-16.5l3.26 10.03 3.26-10.03z" stroke="#5e5e5e" stroke-width=".05" fill="#5e5e5e"/><use xlink:href="#j" transform="matrix(1,0,0,1,255.20987654320987,1018.4766362708493) translate(0.005000000000000782 14.222222222222223)"/><path d="M865.2 413.6c2.65-2 6.95-2 9.6 0l70.4 52.8c2.65 2 2.65 5.2 0 7.2l-70.4 52.8c-2.65 2-6.95 2-9.6 0l-70.4-52.8c-2.65-2-2.65-5.2 0-7.2z" stroke="#5e5e5e" stroke-width="3" fill="#fff"/><use xlink:href="#k" transform="matrix(1,0,0,1,795,415) translate(24.202530864197534 59.02777777777778)"/><use xlink:href="#C" transform="matrix(1,0,0,1,795,415) translate(58.708703703703705 59.02777777777778)"/><use xlink:href="#r" transform="matrix(1,0,0,1,795,415) translate(77.8445061728395 59.02777777777778)"/><use xlink:href="#s" transform="matrix(1,0,0,1,795,415) translate(96.36302469135802 59.02777777777778)"/><path d="M870 530.33v70.9" stroke="#5e5e5e" stroke-width="2" fill="none"/><path d="M871 529.35v1h-2v-1.04z" stroke="#5e5e5e" stroke-width=".05" fill="#5e5e5e"/><path d="M870 616.5l-4.64-14.26h9.28z" stroke="#5e5e5e" stroke-width="2" fill="#5e5e5e"/><g><use xlink:href="#j" transform="matrix(1,0,0,1,878.0000000000001,577.3333333333334) translate(0.005000000000000782 14.222222222222223)"/></g><path d="M864.3 621.9c3.15-1.05 8.25-1.05 11.4 0l168.6 56.2c3.15 1.05 3.15 2.75 0 3.8l-168.6 56.2c-3.15 1.05-8.25 1.05-11.4 0l-168.6-56.2c-3.15-1.05-3.15-2.75 0-3.8z" stroke="#5e5e5e" stroke-width="3" fill="#fff"/><g><use xlink:href="#D" transform="matrix(1,0,0,1,695,625) translate(48.61611111111112 59.02777777777778)"/><use xlink:href="#E" transform="matrix(1,0,0,1,695,625) translate(67.13462962962964 59.02777777777778)"/><use xlink:href="#F" transform="matrix(1,0,0,1,695,625) translate(99.2333950617284 59.02777777777778)"/><use xlink:href="#o" transform="matrix(1,0,0,1,695,625) translate(141.08524691358025 59.02777777777778)"/><use xlink:href="#q" transform="matrix(1,0,0,1,695,625) translate(171.94944444444445 59.02777777777778)"/><use xlink:href="#G" transform="matrix(1,0,0,1,695,625) translate(191.08524691358025 59.02777777777778)"/><use xlink:href="#C" transform="matrix(1,0,0,1,695,625) translate(232.9370987654321 59.02777777777778)"/><use xlink:href="#y" transform="matrix(1,0,0,1,695,625) translate(252.0729012345679 59.02777777777778)"/></g><path d="M871 820h-2v-19.95h2zm0-41.3h-2v-37.44h2z" stroke="#5e5e5e" stroke-width=".05" fill="#5e5e5e"/><path d="M871 740.32v.96h-2v-1.08z" fill="#5e5e5e"/><path d="M871.02 740.3v1H869v-1.13zm-2 .96H871v-.9l-1.96-.14z" stroke="#5e5e5e" stroke-width=".05" fill="#5e5e5e"/><path d="M870 835.26L865.36 821h9.28z" fill="#5e5e5e"/><path d="M870 838.5l-6-18.5h12zm-3.26-16.5l3.26 10.03 3.26-10.03z" stroke="#5e5e5e" stroke-width=".05" fill="#5e5e5e"/><g><use xlink:href="#j" transform="matrix(1,0,0,1,855.2098765432099,778.7129880995707) translate(0.005000000000000782 14.222222222222223)"/></g><path d="M710 846c0-3.3 2.7-6 6-6h308c3.3 0 6 2.7 6 6v48c0 3.3-2.7 6-6 6H716c-3.3 0-6-2.7-6-6z" stroke="#5e5e5e" stroke-width="3" fill="#fff"/><g><use xlink:href="#H" transform="matrix(1,0,0,1,722,852) translate(12.320987654320987 22.27777777777778)"/><use xlink:href="#o" transform="matrix(1,0,0,1,722,852) translate(101.14814814814815 22.27777777777778)"/><use xlink:href="#q" transform="matrix(1,0,0,1,722,852) translate(132.01234567901236 22.27777777777778)"/><use xlink:href="#I" transform="matrix(1,0,0,1,722,852) translate(151.14814814814815 22.27777777777778)"/><use xlink:href="#h" transform="matrix(1,0,0,1,722,852) translate(191.82716049382717 22.27777777777778)"/><use xlink:href="#J" transform="matrix(1,0,0,1,722,852) translate(210.96296296296296 22.27777777777778)"/></g><path d="M1231 864.13l-.92 3.42-2.53 2.53-3.42.92H1032.5v-2h191.37l2.64-.7 1.8-1.8.7-2.63V735h2z" stroke="#5e5e5e" stroke-width=".05" fill="#5e5e5e"/><path d="M1032.53 871h-1.03v-2h1.03z" fill="#5e5e5e"/><path d="M1032.55 871.02h-1.08V869h1.08zm-1.02-2V871h.97V869z" stroke="#5e5e5e" stroke-width=".05" fill="#5e5e5e"/><path d="M1234.64 734h-9.28l4.64-14.26z" fill="#5e5e5e"/><path d="M1236 735h-12l6-18.5zm-9.26-2h6.52l-3.26-10.03zM1081.57 681h-31.5v-2h31.5zm48.43 0h-14v-2h14z" stroke="#5e5e5e" stroke-width=".05" fill="#5e5e5e"/><path d="M1050.08 681h-2.26l1.24-1-1.24-1h2.26z" fill="#5e5e5e"/><path d="M1050.1 681.02h-2.36l1.28-1.02-1.28-1.02h2.37zm-2.2-2l1.2.98-1.2.98h2.16V679z" stroke="#5e5e5e" stroke-width=".05" fill="#5e5e5e"/><path d="M1145.26 680l-14.26 4.64v-9.28z" fill="#5e5e5e"/><path d="M1148.5 680l-18.5 6v-12zm-16.5 3.26l10.03-3.26-10.03-3.26z" stroke="#5e5e5e" stroke-width=".05" fill="#5e5e5e"/><g><use xlink:href="#n" transform="matrix(1,0,0,1,1081.5692265936962,669.3333333333334) translate(0.004999999999999005 14.222222222222223)"/></g><path d="M1230 642.5V476c0-3.3-2.7-6-6-6H967.1" stroke="#5e5e5e" stroke-width="2" fill="none"/><path d="M1231 643.5h-2v-1.03h2z" stroke="#5e5e5e" stroke-width=".05" fill="#5e5e5e"/><path d="M951.85 470l14.26-4.64v9.28z" stroke="#5e5e5e" stroke-width="2" fill="#5e5e5e"/><path d="M1150 651c0-3.3 2.7-6 6-6h148c3.3 0 6 2.7 6 6v58c0 3.3-2.7 6-6 6h-148c-3.3 0-6-2.7-6-6z" stroke="#5e5e5e" stroke-width="3" fill="#fff"/><g><use xlink:href="#k" transform="matrix(1,0,0,1,1162,657) translate(8.185185185185183 26.40277777777778)"/><use xlink:href="#h" transform="matrix(1,0,0,1,1162,657) translate(42.691358024691354 26.40277777777778)"/><use xlink:href="#p" transform="matrix(1,0,0,1,1162,657) translate(61.82716049382716 26.40277777777778)"/><use xlink:href="#q" transform="matrix(1,0,0,1,1162,657) translate(96.33333333333334 26.40277777777778)"/><use xlink:href="#K" transform="matrix(1,0,0,1,1162,657) translate(115.46913580246914 26.40277777777778)"/></g><defs><path fill="#333" d="M97-269c9-18 26-28 38-43h36v5l-54 38H97zM30 0v-248h187v28H63v79h144v27H63v87h162V0H30" id="L"/><path fill="#333" d="M108 0H70L1-190h34L89-25l56-165h34" id="M"/><path fill="#333" d="M100-194c63 0 86 42 84 106H49c0 40 14 67 53 68 26 1 43-12 49-29l28 8c-11 28-37 45-77 45C44 4 14-33 15-96c1-61 26-98 85-98zm52 81c6-60-76-77-97-28-3 7-6 17-6 28h103zm-74-98c8-23 27-35 38-54h36v5l-58 49H78" id="N"/><path fill="#333" d="M117-194c89-4 53 116 60 194h-32v-121c0-31-8-49-39-48C34-167 62-67 57 0H25l-1-190h30c1 10-1 24 2 32 11-22 29-35 61-36" id="O"/><path fill="#333" d="M100-194c63 0 86 42 84 106H49c0 40 14 67 53 68 26 1 43-12 49-29l28 8c-11 28-37 45-77 45C44 4 14-33 15-96c1-61 26-98 85-98zm52 81c6-60-76-77-97-28-3 7-6 17-6 28h103" id="P"/><path fill="#333" d="M210-169c-67 3-38 105-44 169h-31v-121c0-29-5-50-35-48C34-165 62-65 56 0H25l-1-190h30c1 10-1 24 2 32 10-44 99-50 107 0 11-21 27-35 58-36 85-2 47 119 55 194h-31v-121c0-29-5-49-35-48" id="Q"/><path fill="#333" d="M59-47c-2 24 18 29 38 22v24C64 9 27 4 27-40v-127H5v-23h24l9-43h21v43h35v23H59v120" id="R"/><g id="a"><use transform="matrix(0.06172839506172839,0,0,0.06172839506172839,0,0)" xlink:href="#L"/><use transform="matrix(0.06172839506172839,0,0,0.06172839506172839,14.814814814814813,0)" xlink:href="#M"/><use transform="matrix(0.06172839506172839,0,0,0.06172839506172839,25.925925925925924,0)" xlink:href="#N"/><use transform="matrix(0.06172839506172839,0,0,0.06172839506172839,38.2716049382716,0)" xlink:href="#O"/><use transform="matrix(0.06172839506172839,0,0,0.06172839506172839,50.61728395061728,0)" xlink:href="#P"/><use transform="matrix(0.06172839506172839,0,0,0.06172839506172839,62.962962962962955,0)" xlink:href="#Q"/><use transform="matrix(0.06172839506172839,0,0,0.06172839506172839,81.41975308641975,0)" xlink:href="#P"/><use transform="matrix(0.06172839506172839,0,0,0.06172839506172839,93.76543209876543,0)" xlink:href="#O"/><use transform="matrix(0.06172839506172839,0,0,0.06172839506172839,106.11111111111111,0)" xlink:href="#R"/></g><path fill="#333" d="M96-169c-40 0-48 33-48 73s9 75 48 75c24 0 41-14 43-38l32 2c-6 37-31 61-74 61-59 0-76-41-82-99-10-93 101-131 147-64 4 7 5 14 7 22l-32 3c-4-21-16-35-41-35" id="S"/><path fill="#333" d="M141-36C126-15 110 5 73 4 37 3 15-17 15-53c-1-64 63-63 125-63 3-35-9-54-41-54-24 1-41 7-42 31l-33-3c5-37 33-52 76-52 45 0 72 20 72 64v82c-1 20 7 32 28 27v20c-31 9-61-2-59-35zM48-53c0 20 12 33 32 33 41-3 63-29 60-74-43 2-92-5-92 41" id="T"/><path fill="#333" d="M115-194c55 1 70 41 70 98S169 2 115 4C84 4 66-9 55-30l1 105H24l-1-265h31l2 30c10-21 28-34 59-34zm-8 174c40 0 45-34 45-75s-6-73-45-74c-42 0-51 32-51 76 0 43 10 73 51 73" id="U"/><path fill="#333" d="M84 4C-5 8 30-112 23-190h32v120c0 31 7 50 39 49 72-2 45-101 50-169h31l1 190h-30c-1-10 1-25-2-33-11 22-28 36-60 37" id="V"/><path fill="#333" d="M114-163C36-179 61-72 57 0H25l-1-190h30c1 12-1 29 2 39 6-27 23-49 58-41v29" id="W"/><path fill="#333" d="M135-143c-3-34-86-38-87 0 15 53 115 12 119 90S17 21 10-45l28-5c4 36 97 45 98 0-10-56-113-15-118-90-4-57 82-63 122-42 12 7 21 19 24 35" id="X"/><g id="b"><use transform="matrix(0.06172839506172839,0,0,0.06172839506172839,0,0)" xlink:href="#S"/><use transform="matrix(0.06172839506172839,0,0,0.06172839506172839,11.11111111111111,0)" xlink:href="#T"/><use transform="matrix(0.06172839506172839,0,0,0.06172839506172839,23.45679012345679,0)" xlink:href="#U"/><use transform="matrix(0.06172839506172839,0,0,0.06172839506172839,35.80246913580247,0)" xlink:href="#R"/><use transform="matrix(0.06172839506172839,0,0,0.06172839506172839,41.97530864197531,0)" xlink:href="#P"/><use transform="matrix(0.06172839506172839,0,0,0.06172839506172839,54.32098765432099,0)" xlink:href="#V"/><use transform="matrix(0.06172839506172839,0,0,0.06172839506172839,66.66666666666667,0)" xlink:href="#W"/><use transform="matrix(0.06172839506172839,0,0,0.06172839506172839,74.01234567901236,0)" xlink:href="#X"/></g><path fill="#333" d="M212-179c-10-28-35-45-73-45-59 0-87 40-87 99 0 60 29 101 89 101 43 0 62-24 78-52l27 14C228-24 195 4 139 4 59 4 22-46 18-125c-6-104 99-153 187-111 19 9 31 26 39 46" id="Y"/><path fill="#333" d="M100-194c62-1 85 37 85 99 1 63-27 99-86 99S16-35 15-95c0-66 28-99 85-99zM99-20c44 1 53-31 53-75 0-43-8-75-51-75s-53 32-53 75 10 74 51 75" id="Z"/><path fill="#333" d="M24 0v-261h32V0H24" id="aa"/><g id="c"><use transform="matrix(0.06172839506172839,0,0,0.06172839506172839,0,0)" xlink:href="#Y"/><use transform="matrix(0.06172839506172839,0,0,0.06172839506172839,15.987654320987653,0)" xlink:href="#Z"/><use transform="matrix(0.06172839506172839,0,0,0.06172839506172839,28.333333333333332,0)" xlink:href="#V"/><use transform="matrix(0.06172839506172839,0,0,0.06172839506172839,40.67901234567901,0)" xlink:href="#aa"/><use transform="matrix(0.06172839506172839,0,0,0.06172839506172839,45.55555555555556,0)" xlink:href="#P"/><use transform="matrix(0.06172839506172839,0,0,0.06172839506172839,57.901234567901234,0)" xlink:href="#V"/><use transform="matrix(0.06172839506172839,0,0,0.06172839506172839,70.24691358024691,0)" xlink:href="#W"/></g><path fill="#333" d="M85-194c31 0 48 13 60 33l-1-100h32l1 261h-30c-2-10 0-23-3-31C134-8 116 4 85 4 32 4 16-35 15-94c0-66 23-100 70-100zm9 24c-40 0-46 34-46 75 0 40 6 74 45 74 42 0 51-32 51-76 0-42-9-74-50-73" id="ab"/><path fill="#333" d="M24-231v-30h32v30H24zM24 0v-190h32V0H24" id="ac"/><path fill="#333" d="M101-234c-31-9-42 10-38 44h38v23H63V0H32v-167H5v-23h27c-7-52 17-82 69-68v24" id="ad"/><g id="d"><use transform="matrix(0.06172839506172839,0,0,0.06172839506172839,0,0)" xlink:href="#ab"/><use transform="matrix(0.06172839506172839,0,0,0.06172839506172839,12.345679012345679,0)" xlink:href="#ac"/><use transform="matrix(0.06172839506172839,0,0,0.06172839506172839,17.22222222222222,0)" xlink:href="#ad"/><use transform="matrix(0.06172839506172839,0,0,0.06172839506172839,22.962962962962962,0)" xlink:href="#ad"/><use transform="matrix(0.06172839506172839,0,0,0.06172839506172839,29.1358024691358,0)" xlink:href="#N"/><use transform="matrix(0.06172839506172839,0,0,0.06172839506172839,41.48148148148148,0)" xlink:href="#W"/><use transform="matrix(0.06172839506172839,0,0,0.06172839506172839,48.82716049382716,0)" xlink:href="#P"/><use transform="matrix(0.06172839506172839,0,0,0.06172839506172839,61.172839506172835,0)" xlink:href="#O"/><use transform="matrix(0.06172839506172839,0,0,0.06172839506172839,73.51851851851852,0)" xlink:href="#R"/><use transform="matrix(0.06172839506172839,0,0,0.06172839506172839,79.69135802469135,0)" xlink:href="#P"/></g><path fill="#333" d="M103-251c84 0 111 97 45 133-19 10-37 24-39 52H78c0-63 77-55 77-114 0-30-21-42-52-43-32 0-53 17-56 46l-32-2c7-45 34-72 88-72zM77 0v-35h34V0H77" id="ae"/><use transform="matrix(0.06172839506172839,0,0,0.06172839506172839,0,0)" xlink:href="#ae" id="e"/><path fill="#333" d="M141-36C126-15 110 5 73 4 37 3 15-17 15-53c-1-64 63-63 125-63 3-35-9-54-41-54-24 1-41 7-42 31l-33-3c5-37 33-52 76-52 45 0 72 20 72 64v82c-1 20 7 32 28 27v20c-31 9-61-2-59-35zM48-53c0 20 12 33 32 33 41-3 63-29 60-74-43 2-92-5-92 41zm62-158l-58-49v-5h36c12 19 30 32 38 54h-16" id="af"/><use transform="matrix(0.06172839506172839,0,0,0.06172839506172839,0,0)" xlink:href="#af" id="f"/><g id="g"><use transform="matrix(0.06172839506172839,0,0,0.06172839506172839,0,0)" xlink:href="#aa"/><use transform="matrix(0.06172839506172839,0,0,0.06172839506172839,4.876543209876543,0)" xlink:href="#ac"/><use transform="matrix(0.06172839506172839,0,0,0.06172839506172839,9.753086419753085,0)" xlink:href="#W"/><use transform="matrix(0.06172839506172839,0,0,0.06172839506172839,17.098765432098766,0)" xlink:href="#P"/></g><path fill="#333" d="M18-150v-26h174v26H18zm0 90v-26h174v26H18" id="ag"/><use transform="matrix(0.06172839506172839,0,0,0.06172839506172839,0,0)" xlink:href="#ag" id="h"/><path fill="#333" d="M87 75C49 33 22-17 22-94c0-76 28-126 65-167h31c-38 41-64 92-64 168S80 34 118 75H87" id="ah"/><path fill="#333" d="M27 0v-27h64v-190l-56 39v-29l58-41h29v221h61V0H27" id="ai"/><path fill="#333" d="M101-251c68 0 85 55 85 127S166 4 100 4C33 4 14-52 14-124c0-73 17-127 87-127zm-1 229c47 0 54-49 54-102s-4-102-53-102c-51 0-55 48-55 102 0 53 5 102 54 102" id="aj"/><path fill="#333" d="M80-196l47-18 7 23-49 13 32 44-20 13-27-46-27 45-21-12 33-44-49-13 8-23 47 19-2-53h23" id="ak"/><path fill="#333" d="M101-251c82-7 93 87 43 132L82-64C71-53 59-42 53-27h129V0H18c2-99 128-94 128-182 0-28-16-43-45-43s-46 15-49 41l-32-3c6-41 34-60 81-64" id="al"/><path fill="#333" d="M0 4l72-265h28L28 4H0" id="am"/><path fill="#333" d="M33-261c38 41 65 92 65 168S71 34 33 75H2C39 34 66-17 66-93S39-220 2-261h31" id="an"/><g id="i"><use transform="matrix(0.06172839506172839,0,0,0.06172839506172839,0,0)" xlink:href="#W"/><use transform="matrix(0.06172839506172839,0,0,0.06172839506172839,7.345679012345679,0)" xlink:href="#O"/><use transform="matrix(0.06172839506172839,0,0,0.06172839506172839,19.691358024691358,0)" xlink:href="#ab"/><use transform="matrix(0.06172839506172839,0,0,0.06172839506172839,32.03703703703704,0)" xlink:href="#ah"/><use transform="matrix(0.06172839506172839,0,0,0.06172839506172839,39.382716049382715,0)" xlink:href="#ai"/><use transform="matrix(0.06172839506172839,0,0,0.06172839506172839,51.72839506172839,0)" xlink:href="#aj"/><use transform="matrix(0.06172839506172839,0,0,0.06172839506172839,64.07407407407408,0)" xlink:href="#ak"/><use transform="matrix(0.06172839506172839,0,0,0.06172839506172839,72.71604938271605,0)" xlink:href="#aa"/><use transform="matrix(0.06172839506172839,0,0,0.06172839506172839,77.5925925925926,0)" xlink:href="#P"/><use transform="matrix(0.06172839506172839,0,0,0.06172839506172839,89.93827160493828,0)" xlink:href="#O"/><use transform="matrix(0.06172839506172839,0,0,0.06172839506172839,102.28395061728396,0)" xlink:href="#al"/><use transform="matrix(0.06172839506172839,0,0,0.06172839506172839,114.62962962962965,0)" xlink:href="#am"/><use transform="matrix(0.06172839506172839,0,0,0.06172839506172839,120.80246913580248,0)" xlink:href="#aa"/><use transform="matrix(0.06172839506172839,0,0,0.06172839506172839,125.67901234567903,0)" xlink:href="#P"/><use transform="matrix(0.06172839506172839,0,0,0.06172839506172839,138.0246913580247,0)" xlink:href="#O"/><use transform="matrix(0.06172839506172839,0,0,0.06172839506172839,150.37037037037038,0)" xlink:href="#an"/></g><path fill="#333" d="M140-251c80 0 125 45 125 126S219 4 139 4C58 4 15-44 15-125s44-126 125-126zm-1 214c52 0 73-35 73-88 0-50-21-86-72-86-52 0-73 35-73 86s22 88 72 88" id="ao"/><path fill="#333" d="M85 4C-2 5 27-109 22-190h50c7 57-23 150 33 157 60-5 35-97 40-157h50l1 190h-47c-2-12 1-28-3-38-12 25-28 42-61 42" id="ap"/><path fill="#333" d="M25-224v-37h50v37H25zM25 0v-190h50V0H25" id="aq"/><g id="j"><use transform="matrix(0.04938271604938272,0,0,0.04938271604938272,0,0)" xlink:href="#ao"/><use transform="matrix(0.04938271604938272,0,0,0.04938271604938272,13.827160493827162,0)" xlink:href="#ap"/><use transform="matrix(0.04938271604938272,0,0,0.04938271604938272,24.641975308641975,0)" xlink:href="#aq"/></g><g id="k"><use transform="matrix(0.06172839506172839,0,0,0.06172839506172839,0,0)" xlink:href="#aa"/><use transform="matrix(0.06172839506172839,0,0,0.06172839506172839,4.876543209876543,0)" xlink:href="#V"/><use transform="matrix(0.06172839506172839,0,0,0.06172839506172839,17.22222222222222,0)" xlink:href="#X"/></g><use transform="matrix(0.06172839506172839,0,0,0.06172839506172839,0,0)" xlink:href="#aj" id="l"/><g id="m"><use transform="matrix(0.06172839506172839,0,0,0.06172839506172839,0,0)" xlink:href="#ac"/><use transform="matrix(0.06172839506172839,0,0,0.06172839506172839,4.876543209876543,0)" xlink:href="#O"/><use transform="matrix(0.06172839506172839,0,0,0.06172839506172839,17.22222222222222,0)" xlink:href="#ab"/><use transform="matrix(0.06172839506172839,0,0,0.06172839506172839,29.5679012345679,0)" xlink:href="#N"/><use transform="matrix(0.06172839506172839,0,0,0.06172839506172839,41.913580246913575,0)" xlink:href="#ad"/><use transform="matrix(0.06172839506172839,0,0,0.06172839506172839,48.08641975308642,0)" xlink:href="#ac"/><use transform="matrix(0.06172839506172839,0,0,0.06172839506172839,52.96296296296296,0)" xlink:href="#O"/><use transform="matrix(0.06172839506172839,0,0,0.06172839506172839,65.30864197530865,0)" xlink:href="#ac"/><use transform="matrix(0.06172839506172839,0,0,0.06172839506172839,70.18518518518519,0)" xlink:href="#P"/></g><path fill="#333" d="M175 0L67-191c6 58 2 128 3 191H24v-248h59L193-55c-6-58-2-129-3-193h46V0h-61" id="ar"/><path fill="#333" d="M110-194c64 0 96 36 96 99 0 64-35 99-97 99-61 0-95-36-95-99 0-62 34-99 96-99zm-1 164c35 0 45-28 45-65 0-40-10-65-43-65-34 0-45 26-45 65 0 36 10 65 43 65" id="as"/><path fill="#333" d="M135-194c87-1 58 113 63 194h-50c-7-57 23-157-34-157-59 0-34 97-39 157H25l-1-190h47c2 12-1 28 3 38 12-26 28-41 61-42" id="at"/><g id="n"><use transform="matrix(0.04938271604938272,0,0,0.04938271604938272,0,0)" xlink:href="#ar"/><use transform="matrix(0.04938271604938272,0,0,0.04938271604938272,12.790123456790125,0)" xlink:href="#as"/><use transform="matrix(0.04938271604938272,0,0,0.04938271604938272,23.60493827160494,0)" xlink:href="#at"/></g><g id="o"><use transform="matrix(0.06172839506172839,0,0,0.06172839506172839,0,0)" xlink:href="#R"/><use transform="matrix(0.06172839506172839,0,0,0.06172839506172839,6.172839506172839,0)" xlink:href="#Z"/><use transform="matrix(0.06172839506172839,0,0,0.06172839506172839,18.51851851851852,0)" xlink:href="#R"/></g><g id="p"><use transform="matrix(0.06172839506172839,0,0,0.06172839506172839,0,0)" xlink:href="#aa"/><use transform="matrix(0.06172839506172839,0,0,0.06172839506172839,4.876543209876543,0)" xlink:href="#V"/><use transform="matrix(0.06172839506172839,0,0,0.06172839506172839,17.22222222222222,0)" xlink:href="#X"/></g><path fill="#333" d="M118-107v75H92v-75H18v-26h74v-75h26v75h74v26h-74" id="au"/><use transform="matrix(0.06172839506172839,0,0,0.06172839506172839,0,0)" xlink:href="#au" id="q"/><use transform="matrix(0.06172839506172839,0,0,0.06172839506172839,0,0)" xlink:href="#af" id="r"/><g id="s"><use transform="matrix(0.06172839506172839,0,0,0.06172839506172839,0,0)" xlink:href="#aa"/><use transform="matrix(0.06172839506172839,0,0,0.06172839506172839,4.876543209876543,0)" xlink:href="#ac"/><use transform="matrix(0.06172839506172839,0,0,0.06172839506172839,9.753086419753085,0)" xlink:href="#W"/><use transform="matrix(0.06172839506172839,0,0,0.06172839506172839,17.098765432098766,0)" xlink:href="#P"/></g><g id="t"><use transform="matrix(0.06172839506172839,0,0,0.06172839506172839,0,0)" xlink:href="#S"/><use transform="matrix(0.06172839506172839,0,0,0.06172839506172839,11.11111111111111,0)" xlink:href="#Z"/><use transform="matrix(0.06172839506172839,0,0,0.06172839506172839,23.45679012345679,0)" xlink:href="#V"/><use transform="matrix(0.06172839506172839,0,0,0.06172839506172839,35.80246913580247,0)" xlink:href="#aa"/><use transform="matrix(0.06172839506172839,0,0,0.06172839506172839,40.67901234567901,0)" xlink:href="#P"/><use transform="matrix(0.06172839506172839,0,0,0.06172839506172839,53.02469135802469,0)" xlink:href="#V"/><use transform="matrix(0.06172839506172839,0,0,0.06172839506172839,65.37037037037037,0)" xlink:href="#W"/></g><path fill="#333" d="M100-194c63 0 86 42 84 106H49c0 40 14 67 53 68 26 1 43-12 49-29l28 8c-11 28-37 45-77 45C44 4 14-33 15-96c1-61 26-98 85-98zm52 81c6-60-76-77-97-28-3 7-6 17-6 28h103zm-36-98l-58-49v-5h36c12 19 30 32 38 54h-16" id="av"/><g id="u"><use transform="matrix(0.06172839506172839,0,0,0.06172839506172839,0,0)" xlink:href="#ab"/><use transform="matrix(0.06172839506172839,0,0,0.06172839506172839,12.345679012345679,0)" xlink:href="#P"/><use transform="matrix(0.06172839506172839,0,0,0.06172839506172839,24.691358024691358,0)" xlink:href="#W"/><use transform="matrix(0.06172839506172839,0,0,0.06172839506172839,32.03703703703704,0)" xlink:href="#O"/><use transform="matrix(0.06172839506172839,0,0,0.06172839506172839,44.382716049382715,0)" xlink:href="#ac"/><use transform="matrix(0.06172839506172839,0,0,0.06172839506172839,49.25925925925926,0)" xlink:href="#av"/><use transform="matrix(0.06172839506172839,0,0,0.06172839506172839,61.60493827160494,0)" xlink:href="#W"/><use transform="matrix(0.06172839506172839,0,0,0.06172839506172839,68.95061728395062,0)" xlink:href="#P"/></g><g id="v"><use transform="matrix(0.06172839506172839,0,0,0.06172839506172839,0,0)" xlink:href="#S"/><use transform="matrix(0.06172839506172839,0,0,0.06172839506172839,11.11111111111111,0)" xlink:href="#Z"/><use transform="matrix(0.06172839506172839,0,0,0.06172839506172839,23.45679012345679,0)" xlink:href="#V"/><use transform="matrix(0.06172839506172839,0,0,0.06172839506172839,35.80246913580247,0)" xlink:href="#aa"/><use transform="matrix(0.06172839506172839,0,0,0.06172839506172839,40.67901234567901,0)" xlink:href="#P"/><use transform="matrix(0.06172839506172839,0,0,0.06172839506172839,53.02469135802469,0)" xlink:href="#V"/><use transform="matrix(0.06172839506172839,0,0,0.06172839506172839,65.37037037037037,0)" xlink:href="#W"/></g><g id="w"><use transform="matrix(0.06172839506172839,0,0,0.06172839506172839,0,0)" xlink:href="#ac"/><use transform="matrix(0.06172839506172839,0,0,0.06172839506172839,4.876543209876543,0)" xlink:href="#ab"/><use transform="matrix(0.06172839506172839,0,0,0.06172839506172839,17.22222222222222,0)" xlink:href="#P"/><use transform="matrix(0.06172839506172839,0,0,0.06172839506172839,29.5679012345679,0)" xlink:href="#O"/><use transform="matrix(0.06172839506172839,0,0,0.06172839506172839,41.913580246913575,0)" xlink:href="#R"/><use transform="matrix(0.06172839506172839,0,0,0.06172839506172839,48.08641975308642,0)" xlink:href="#ac"/><use transform="matrix(0.06172839506172839,0,0,0.06172839506172839,52.96296296296296,0)" xlink:href="#ad"/><use transform="matrix(0.06172839506172839,0,0,0.06172839506172839,59.135802469135804,0)" xlink:href="#ac"/><use transform="matrix(0.06172839506172839,0,0,0.06172839506172839,64.01234567901234,0)" xlink:href="#N"/><use transform="matrix(0.06172839506172839,0,0,0.06172839506172839,76.35802469135803,0)" xlink:href="#P"/></g><path fill="#333" d="M18-27v-27l151-64-151-65v-27l175 74v36" id="aw"/><g id="x"><use transform="matrix(0.06172839506172839,0,0,0.06172839506172839,0,0)" xlink:href="#aw"/><use transform="matrix(0.06172839506172839,0,0,0.06172839506172839,12.962962962962962,0)" xlink:href="#ag"/></g><path fill="#333" d="M160-131c35 5 61 23 61 61C221 17 115-2 30 0v-248c76 3 177-17 177 60 0 33-19 50-47 57zm-97-11c50-1 110 9 110-42 0-47-63-36-110-37v79zm0 115c55-2 124 14 124-45 0-56-70-42-124-44v89" id="ax"/><path fill="#333" d="M33 0v-248h34V0H33" id="ay"/><path fill="#333" d="M127-220V0H93v-220H8v-28h204v28h-85" id="az"/><path fill="#333" d="M185-189c-5-48-123-54-124 2 14 75 158 14 163 119 3 78-121 87-175 55-17-10-28-26-33-46l33-7c5 56 141 63 141-1 0-78-155-14-162-118-5-82 145-84 179-34 5 7 8 16 11 25" id="aA"/><g id="y"><use transform="matrix(0.06172839506172839,0,0,0.06172839506172839,0,0)" xlink:href="#ax"/><use transform="matrix(0.06172839506172839,0,0,0.06172839506172839,14.814814814814813,0)" xlink:href="#ay"/><use transform="matrix(0.06172839506172839,0,0,0.06172839506172839,20.98765432098765,0)" xlink:href="#az"/><use transform="matrix(0.06172839506172839,0,0,0.06172839506172839,34.50617283950617,0)" xlink:href="#aA"/></g><path fill="#333" d="M137 0h-34L2-248h35l83 218 83-218h36" id="aB"/><g id="z"><use transform="matrix(0.06172839506172839,0,0,0.06172839506172839,0,0)" xlink:href="#aB"/><use transform="matrix(0.06172839506172839,0,0,0.06172839506172839,13.580246913580245,0)" xlink:href="#P"/><use transform="matrix(0.06172839506172839,0,0,0.06172839506172839,25.925925925925924,0)" xlink:href="#W"/><use transform="matrix(0.06172839506172839,0,0,0.06172839506172839,33.2716049382716,0)" xlink:href="#X"/></g><g id="A"><use transform="matrix(0.06172839506172839,0,0,0.06172839506172839,0,0)" xlink:href="#aa"/><use transform="matrix(0.06172839506172839,0,0,0.06172839506172839,4.876543209876543,0)" xlink:href="#P"/></g><g id="B"><use transform="matrix(0.06172839506172839,0,0,0.06172839506172839,0,0)" xlink:href="#X"/><use transform="matrix(0.06172839506172839,0,0,0.06172839506172839,11.11111111111111,0)" xlink:href="#P"/><use transform="matrix(0.06172839506172839,0,0,0.06172839506172839,23.45679012345679,0)" xlink:href="#W"/><use transform="matrix(0.06172839506172839,0,0,0.06172839506172839,30.80246913580247,0)" xlink:href="#M"/><use transform="matrix(0.06172839506172839,0,0,0.06172839506172839,41.91358024691358,0)" xlink:href="#P"/><use transform="matrix(0.06172839506172839,0,0,0.06172839506172839,54.25925925925926,0)" xlink:href="#V"/><use transform="matrix(0.06172839506172839,0,0,0.06172839506172839,66.60493827160494,0)" xlink:href="#W"/></g><path fill="#333" d="M18-100v-36l175-74v27L42-118l151 64v27" id="aC"/><use transform="matrix(0.06172839506172839,0,0,0.06172839506172839,0,0)" xlink:href="#aC" id="C"/><use transform="matrix(0.06172839506172839,0,0,0.06172839506172839,0,0)" xlink:href="#aj" id="D"/><g id="E"><use transform="matrix(0.06172839506172839,0,0,0.06172839506172839,0,0)" xlink:href="#aC"/><use transform="matrix(0.06172839506172839,0,0,0.06172839506172839,12.962962962962962,0)" xlink:href="#ag"/></g><g id="F"><use transform="matrix(0.06172839506172839,0,0,0.06172839506172839,0,0)" xlink:href="#ah"/><use transform="matrix(0.06172839506172839,0,0,0.06172839506172839,7.345679012345679,0)" xlink:href="#aa"/><use transform="matrix(0.06172839506172839,0,0,0.06172839506172839,12.222222222222221,0)" xlink:href="#V"/><use transform="matrix(0.06172839506172839,0,0,0.06172839506172839,24.5679012345679,0)" xlink:href="#X"/></g><g id="G"><use transform="matrix(0.06172839506172839,0,0,0.06172839506172839,0,0)" xlink:href="#aa"/><use transform="matrix(0.06172839506172839,0,0,0.06172839506172839,4.876543209876543,0)" xlink:href="#V"/><use transform="matrix(0.06172839506172839,0,0,0.06172839506172839,17.22222222222222,0)" xlink:href="#X"/><use transform="matrix(0.06172839506172839,0,0,0.06172839506172839,28.333333333333332,0)" xlink:href="#an"/></g><path fill="#333" d="M26 75v-336h71v23H56V52h41v23H26" id="aD"/><g id="H"><use transform="matrix(0.06172839506172839,0,0,0.06172839506172839,0,0)" xlink:href="#S"/><use transform="matrix(0.06172839506172839,0,0,0.06172839506172839,11.11111111111111,0)" xlink:href="#Z"/><use transform="matrix(0.06172839506172839,0,0,0.06172839506172839,23.45679012345679,0)" xlink:href="#ab"/><use transform="matrix(0.06172839506172839,0,0,0.06172839506172839,35.80246913580247,0)" xlink:href="#P"/><use transform="matrix(0.06172839506172839,0,0,0.06172839506172839,48.148148148148145,0)" xlink:href="#aD"/><use transform="matrix(0.06172839506172839,0,0,0.06172839506172839,54.32098765432099,0)" xlink:href="#aa"/><use transform="matrix(0.06172839506172839,0,0,0.06172839506172839,59.19753086419753,0)" xlink:href="#V"/><use transform="matrix(0.06172839506172839,0,0,0.06172839506172839,71.54320987654322,0)" xlink:href="#X"/></g><path fill="#333" d="M3 75V52h41v-290H3v-23h71V75H3" id="aE"/><g id="I"><use transform="matrix(0.06172839506172839,0,0,0.06172839506172839,0,0)" xlink:href="#aa"/><use transform="matrix(0.06172839506172839,0,0,0.06172839506172839,4.876543209876543,0)" xlink:href="#V"/><use transform="matrix(0.06172839506172839,0,0,0.06172839506172839,17.22222222222222,0)" xlink:href="#X"/><use transform="matrix(0.06172839506172839,0,0,0.06172839506172839,28.333333333333332,0)" xlink:href="#aE"/></g><g id="J"><use transform="matrix(0.06172839506172839,0,0,0.06172839506172839,0,0)" xlink:href="#S"/><use transform="matrix(0.06172839506172839,0,0,0.06172839506172839,11.11111111111111,0)" xlink:href="#Z"/><use transform="matrix(0.06172839506172839,0,0,0.06172839506172839,23.45679012345679,0)" xlink:href="#V"/><use transform="matrix(0.06172839506172839,0,0,0.06172839506172839,35.80246913580247,0)" xlink:href="#aa"/><use transform="matrix(0.06172839506172839,0,0,0.06172839506172839,40.67901234567901,0)" xlink:href="#P"/><use transform="matrix(0.06172839506172839,0,0,0.06172839506172839,53.02469135802469,0)" xlink:href="#V"/><use transform="matrix(0.06172839506172839,0,0,0.06172839506172839,65.37037037037037,0)" xlink:href="#W"/></g><use transform="matrix(0.06172839506172839,0,0,0.06172839506172839,0,0)" xlink:href="#ai" id="K"/></defs></g></svg>